<svg width="24" height="24" viewBox="0 0 24 24" fill="none" xmlns="http://www.w3.org/2000/svg">
<path d="M21 2H6C5.46957 2 4.96086 2.16857 4.58579 2.46863C4.21071 2.76869 4 3.17565 4 3.6V6H2V7.6H4V9.2H2V10.8H4V12.4H2V14H4V16.4C4 16.8243 4.21071 17.2313 4.58579 17.5314C4.96086 17.8314 5.46957 18 6 18H21C21.2652 18 21.5196 17.9157 21.7071 17.7657C21.8946 17.6157 22 17.4122 22 17.2V2.8C22 2.58783 21.8946 2.38434 21.7071 2.23431C21.5196 2.08429 21.2652 2 21 2V2ZM13 4.3992C14.648 4.3992 16 5.48 16 6.7992C15.9971 7.43508 15.6801 8.04427 15.1182 8.49398C14.5562 8.94369 13.7948 9.19747 13 9.2C11.353 9.2 10 8.1176 10 6.7992C10 5.48 11.353 4.3992 13 4.3992ZM19 14.8H7V14.2C7 12.4248 9.705 10.6 13 10.6C16.295 10.6 19 12.4248 19 14.2V14.8Z" fill="#A1A8F8"/>
</svg>
