<svg width="24" height="24" viewBox="0 0 24 24" fill="none" xmlns="http://www.w3.org/2000/svg">
<path d="M20.9618 9.83827L11.8747 2.14458C11.8093 2.08904 11.7316 2.04497 11.646 2.0149C11.5605 1.98484 11.4688 1.96936 11.3761 1.96936C11.2835 1.96936 11.1918 1.98484 11.1063 2.0149C11.0207 2.04497 10.943 2.08904 10.8776 2.14458L1.79049 9.83827C1.52575 10.0626 1.37573 10.3673 1.37573 10.685C1.37573 11.3449 2.00889 11.8813 2.78766 11.8813H3.74512V17.3712C3.74512 17.7021 4.0606 17.9694 4.45109 17.9694H9.96422V13.7823H12.4351V17.9694H18.3012C18.6917 17.9694 19.0072 17.7021 19.0072 17.3712V11.8813H19.9646C20.3397 11.8813 20.6993 11.7561 20.964 11.5299C21.5133 11.0626 21.5133 10.3056 20.9618 9.83827V9.83827Z" fill="#A1A8F8"/>
</svg>
