<svg width="41" height="43" viewBox="0 0 41 43" fill="none" xmlns="http://www.w3.org/2000/svg">
<path d="M5.3986 23.5803H7.07735V35.796C7.07735 37.7209 8.58318 39.2862 10.4348 39.2862H30.5798C32.4314 39.2862 33.9373 37.7209 33.9373 35.796V23.5803H35.616C35.948 23.5803 36.2725 23.4779 36.5485 23.2861C36.8245 23.0944 37.0396 22.8218 37.1666 22.503C37.2936 22.1842 37.3269 21.8334 37.2621 21.4949C37.1974 21.1564 37.0376 20.8455 36.8029 20.6015L21.6942 4.89558C21.5384 4.73338 21.3534 4.6047 21.1497 4.5169C20.9461 4.4291 20.7278 4.38391 20.5073 4.38391C20.2868 4.38391 20.0685 4.4291 19.8649 4.5169C19.6612 4.6047 19.4762 4.73338 19.3204 4.89558L4.21173 20.6015C3.97702 20.8455 3.8172 21.1564 3.75245 21.4949C3.68771 21.8334 3.72095 22.1842 3.84798 22.503C3.97501 22.8218 4.19013 23.0944 4.46613 23.2861C4.74213 23.4779 5.06663 23.5803 5.3986 23.5803ZM17.1498 35.796V27.0705H23.8648V35.796H17.1498ZM20.5073 8.59693L30.5798 19.0675V27.0705L30.5814 35.796H27.2223V27.0705C27.2223 25.1457 25.7164 23.5803 23.8648 23.5803H17.1498C15.2982 23.5803 13.7923 25.1457 13.7923 27.0705V35.796H10.4348V19.0675L20.5073 8.59693Z" fill="#FF8484"/>
</svg>
