<svg width="20" height="20" viewBox="0 0 20 20" fill="none" xmlns="http://www.w3.org/2000/svg">
<path d="M10.0004 0C5.91262 0 2.56262 2.672 2.56262 5.9332C2.56262 7.1968 3.06712 8.3712 3.92087 9.3364L9.09262 16.489C9.81687 17.246 10.2984 17.1022 10.9006 16.449L16.6051 8.683C16.7201 8.5162 16.8106 8.3386 16.8894 8.1572C17.2514 7.45149 17.4375 6.69601 17.4374 5.9332C17.4376 2.672 14.0886 0 10.0004 0ZM10.0004 2.78C12.2019 2.78 13.9524 4.1772 13.9524 5.9332C13.9524 7.6892 12.2019 9.0858 10.0004 9.0858C7.79912 9.0858 6.04787 7.6894 6.04787 5.9332C6.04787 4.1772 7.79912 2.7802 10.0004 2.7802V2.78Z" fill="white"/>
<path d="M14.7284 9.78161L14.7163 9.80755C14.7201 9.79972 14.7231 9.7917 14.7269 9.78387L14.7284 9.78161Z" fill="white"/>
<path d="M6.0015 13.8114C2.47 14.2106 0 15.1656 0 16.5714C0 18.465 4.127 20 10 20C15.873 20 20 18.465 20 16.5714C20 15.1656 17.5303 14.2106 13.999 13.8114L13.5098 14.4778C16.1712 14.7732 18 15.394 18 16.1144C18 17.1244 14.4183 17.943 10 17.943C5.58175 17.943 2 17.1244 2 16.1144C1.99975 15.3964 3.8165 14.7762 6.48625 14.4796C6.325 14.2568 6.16275 14.0344 6.00125 13.8114H6.0015Z" fill="white"/>
</svg>
