<svg width="19" height="20" viewBox="0 0 19 20" fill="none" xmlns="http://www.w3.org/2000/svg">
<path d="M13.6947 13.1728C14.3069 12.8564 15.0077 12.6764 15.7541 12.6764H15.7566C15.8325 12.6764 15.8679 12.5888 15.8123 12.5401C15.0361 11.8703 14.1495 11.3292 13.1887 10.9392C13.1786 10.9343 13.1685 10.9319 13.1583 10.927C14.7294 9.82968 15.7515 8.04623 15.7515 6.03406C15.7515 2.70073 12.9484 0 9.48991 0C6.03147 0 3.23081 2.70073 3.23081 6.03406C3.23081 8.04623 4.25291 9.82968 5.82654 10.927C5.81642 10.9319 5.8063 10.9343 5.79618 10.9392C4.66529 11.399 3.65078 12.0584 2.77795 12.9002C1.91016 13.7333 1.21928 14.7208 0.743869 15.8078C0.276114 16.8722 0.0236715 18.0126 6.3264e-05 19.1679C-0.000611993 19.1939 0.00412415 19.2197 0.0139927 19.2439C0.0238613 19.268 0.0386627 19.2901 0.0575245 19.3087C0.0763864 19.3273 0.0989272 19.342 0.123819 19.3521C0.14871 19.3622 0.175449 19.3674 0.202459 19.3674H1.7179C1.82669 19.3674 1.91777 19.2822 1.9203 19.1776C1.9709 17.2993 2.75265 15.5401 4.13653 14.2068C5.56596 12.8273 7.46848 12.0681 9.49244 12.0681C10.9269 12.0681 12.3032 12.4501 13.4898 13.1654C13.5202 13.1839 13.5552 13.1942 13.5912 13.1955C13.6272 13.1968 13.6629 13.189 13.6947 13.1728V13.1728ZM9.49244 10.219C8.33372 10.219 7.24331 9.78346 6.42108 8.9927C6.01653 8.60465 5.69581 8.14344 5.47741 7.63567C5.259 7.12789 5.14723 6.58357 5.14851 6.03406C5.14851 4.91728 5.60138 3.86618 6.42108 3.07543C7.24078 2.28467 8.33119 1.84915 9.49244 1.84915C10.6537 1.84915 11.7416 2.28467 12.5638 3.07543C12.9684 3.46348 13.2891 3.92468 13.5075 4.43246C13.7259 4.94024 13.8377 5.48456 13.8364 6.03406C13.8364 7.15085 13.3835 8.20195 12.5638 8.9927C11.7416 9.78346 10.6512 10.219 9.49244 10.219ZM18.7976 16.0097H16.6724V13.9659C16.6724 13.8589 16.5814 13.7713 16.47 13.7713H15.0533C14.942 13.7713 14.8509 13.8589 14.8509 13.9659V16.0097H12.7257C12.6144 16.0097 12.5233 16.0973 12.5233 16.2044V17.5669C12.5233 17.674 12.6144 17.7616 12.7257 17.7616H14.8509V19.8054C14.8509 19.9124 14.942 20 15.0533 20H16.47C16.5814 20 16.6724 19.9124 16.6724 19.8054V17.7616H18.7976C18.9089 17.7616 19 17.674 19 17.5669V16.2044C19 16.0973 18.9089 16.0097 18.7976 16.0097Z" fill="black" fill-opacity="0.38"/>
</svg>
